<?xml version="1.0" encoding="UTF-8"?>
<svg id="_レイヤー_1" data-name="レイヤー_1" xmlns="http://www.w3.org/2000/svg" xmlns:xlink="http://www.w3.org/1999/xlink" version="1.1" viewBox="0 0 484.14 479.82">
  <!-- Generator: Adobe Illustrator 29.4.0, SVG Export Plug-In . SVG Version: 2.1.0 Build 152)  -->
  <defs>
    <style>
      .st0 {
        fill: none;
      }

      .st1 {
        clip-path: url(#clippath);
      }
    </style>
    <clipPath id="clippath">
      <rect class="st0" width="484.14" height="479.82"/>
    </clipPath>
  </defs>
  <g class="st1">
    <path d="M185.69,174.65v-45.58c0-3.84,1.44-6.72,4.8-8.64l91.65-52.78c12.48-7.2,27.35-10.55,42.7-10.55,57.58,0,94.05,44.62,94.05,92.12,0,3.36,0,7.2-.48,11.04l-95-55.66c-5.76-3.36-11.52-3.36-17.27,0l-120.43,70.05ZM399.69,352.19v-108.92c0-6.72-2.88-11.52-8.64-14.88l-120.43-70.05,39.35-22.55c3.36-1.92,6.24-1.92,9.6,0l91.65,52.78c26.39,15.36,44.14,47.98,44.14,79.65,0,36.46-21.59,70.05-55.66,83.97h0ZM157.38,256.22l-39.35-23.03c-3.36-1.92-4.8-4.8-4.8-8.64v-105.56c0-51.34,39.35-90.21,92.61-90.21,20.15,0,38.86,6.72,54.7,18.71l-94.52,54.7c-5.76,3.36-8.64,8.15-8.64,14.88v139.15h0ZM242.07,305.16l-56.38-31.67v-67.17l56.38-31.67,56.38,31.67v67.17l-56.38,31.67ZM278.29,451.03c-20.15,0-38.86-6.72-54.7-18.71l94.52-54.7c5.76-3.36,8.64-8.15,8.64-14.88v-139.15l39.83,23.03c3.36,1.92,4.8,4.8,4.8,8.64v105.56c0,51.34-39.83,90.21-93.08,90.21h0ZM164.58,344.03l-91.65-52.78c-26.39-15.36-44.14-47.98-44.14-79.65,0-36.95,22.07-70.05,56.14-83.97v109.4c0,6.72,2.88,11.52,8.64,14.88l119.96,69.57-39.35,22.55c-3.36,1.92-6.24,1.92-9.6,0ZM159.3,422.72c-54.22,0-94.05-40.79-94.05-91.17,0-3.84.48-7.68.96-11.52l94.52,54.7c5.76,3.36,11.52,3.36,17.27,0l120.43-69.57v45.58c0,3.84-1.44,6.72-4.8,8.64l-91.65,52.78c-12.48,7.2-27.35,10.55-42.7,10.55h0ZM278.29,479.82c58.06,0,106.52-41.26,117.56-95.96,53.74-13.92,88.29-64.3,88.29-115.64,0-33.59-14.39-66.21-40.3-89.73,2.4-10.08,3.84-20.15,3.84-30.23,0-68.61-55.66-119.96-119.96-119.96-12.95,0-25.43,1.92-37.9,6.24C268.22,13.43,238.47,0,205.84,0,147.79,0,99.33,41.26,88.29,95.96,34.55,109.88,0,160.26,0,211.6c0,33.59,14.39,66.21,40.3,89.73-2.4,10.08-3.84,20.15-3.84,30.23,0,68.61,55.66,119.96,119.96,119.96,12.95,0,25.43-1.92,37.9-6.24,21.59,21.11,51.34,34.55,83.97,34.55Z"/>
  </g>
</svg>