<?xml version="1.0" encoding="UTF-8"?>
<svg id="logo_画像" data-name="logo 画像" xmlns="http://www.w3.org/2000/svg" viewBox="0 0 225.75 215.24">
  <defs>
    <style>
      .cls-1 {
        fill: #060604;
      }

      .cls-2 {
        fill: #f5b014;
      }

      .cls-3 {
        fill: #f9d71f;
      }

      .cls-4 {
        fill: #060605;
      }

      .cls-5 {
        fill: #f9d621;
      }

      .cls-6 {
        fill: #fbfbfa;
      }

      .cls-7 {
        fill: #070502;
      }

      .cls-8 {
        fill: #f9d720;
      }

      .cls-9 {
        fill: #e65751;
      }

      .cls-10 {
        fill: #dce1e2;
      }

      .cls-11 {
        fill: #fafafa;
      }

      .cls-12 {
        fill: #090805;
      }

      .cls-13 {
        fill: #080808;
      }

      .cls-14 {
        fill: #080504;
      }

      .cls-15 {
        fill: #090702;
      }

      .cls-16 {
        fill: #48acd9;
      }

      .cls-17 {
        fill: #f9d620;
      }

      .cls-18 {
        fill: #ddc858;
      }

      .cls-19 {
        fill: #f5f5f5;
      }

      .cls-20 {
        fill: #d0a138;
      }

      .cls-21 {
        fill: #080908;
      }

      .cls-22 {
        fill: #fcfcfc;
      }

      .cls-23 {
        fill: #f4b116;
      }

      .cls-24 {
        fill: #f29569;
      }

      .cls-25 {
        fill: #f6b115;
      }

      .cls-26 {
        fill: #5cb570;
      }

      .cls-27 {
        fill: #090909;
      }
    </style>
  </defs>
  <g>
    <g>
      <g>
        <path class="cls-13" d="M138.98,28.64c.85.7,2.46,1.76,1.45,3.02-1.42,1.79-5.14-2.85-6.49-2.98-.41-.04-1.66,1.76-2.57,2.2-4.79,2.3-10.04-1.56-9.09-6.81.16-.89.99-2.08,1-2.41.02-.52-.73-1.27-.93-1.91-1.98-6.22,3.75-11.8,9.78-9.21.68.29,1.79,1.25,2.15,1.29.68.07,2.27-.88,3.61-.8,4.61.26,7.36,5.37,4.98,9.39-.61,1.04-2.09,1.82-2.18,1.96-.35.51,4.25,4.88,2.71,6.28-.98.89-2.08-.09-2.71-.86-.45-.55-3.61-5.54-3.64-5.89-.12-1.33,1.69-1.44,2.49-1.96,2.17-1.43,1.85-4.41-.36-5.61-2.86-1.56-3.82,1.26-5.15,1.14-.81-.07-1.24-1.27-1.92-1.78-3.78-2.85-8.93.8-6.88,5.46.36.83,1.41,1.72,1.49,2.25.2,1.38-1.48,1.69-1.71,3.14-.45,2.87,2.1,4.84,4.85,3.99,1.95-.6,1.47-3.62,3.26-3.61.59,0,5.1,3.13,5.85,3.74Z"/>
        <path class="cls-10" d="M140.69,27.79l-1.71.86c-.75-.61-5.26-3.73-5.85-3.74-1.79-.02-1.32,3.01-3.26,3.61-2.75.85-5.3-1.12-4.85-3.99.23-1.45,1.91-1.76,1.71-3.14-.08-.53-1.13-1.42-1.49-2.25-2.04-4.66,3.11-8.31,6.88-5.46.68.51,1.1,1.71,1.92,1.78,1.32.12,2.28-2.7,5.15-1.14,2.21,1.2,2.53,4.18.36,5.61-.8.52-2.6.64-2.49,1.96.03.35,3.19,5.35,3.64,5.89Z"/>
      </g>
      <g>
        <path class="cls-13" d="M208.58,25.51c-.76,1.14-2.37,3.8-3.79,3.37-2.49-.75,1.94-5.11,2.04-6.13.03-.28-1.6-1.72-2.01-2.47-2.26-4.17.67-9.19,5.36-9.29,1.08-.02,2.73.87,3.33.78s1.24-.94,1.91-1.25c5.75-2.62,11.25,2.38,10.2,8.49-.16.93-1.03,1.84-1.08,2.37-.06.67.71,1.71.83,2.58.93,6.46-6.14,10.19-10.69,5.54-.23-.23-.4-.79-.45-.82-.81-.48-4.66,3.63-6.36,3.39-1.03-.14-1.21-1.1-.81-1.93.1-.2,2.76-2.31,3.21-2.64.65-.48,3.92-2.59,4.42-2.59,1.41-.02,1.35,1.79,2.14,2.74,2.48,3.01,7.79-.74,5.39-4.25-.28-.4-.82-.54-1.07-.93-1-1.51.91-2.22,1.46-3.33,1.98-4-2.74-8.29-6.72-5.58-.73.5-1.11,1.56-1.76,1.68-1.72.32-2.41-1.96-4.93-1.25-2.65.75-3.29,4.46-.9,5.93.98.6,2.23.24,2.3,1.73.04.88-1.45,2.98-2.03,3.85Z"/>
        <path class="cls-10" d="M210.29,27.5c-.21-.94-1.23-1.16-1.71-2,.58-.86,2.07-2.97,2.03-3.85-.07-1.49-1.32-1.12-2.3-1.73-2.39-1.47-1.75-5.18.9-5.93s3.22,1.56,4.93,1.25c.65-.12,1.04-1.18,1.76-1.68,3.98-2.71,8.7,1.58,6.72,5.58-.55,1.11-2.45,1.82-1.46,3.33.25.38.8.52,1.07.93,2.41,3.51-2.9,7.26-5.39,4.25-.79-.95-.73-2.76-2.14-2.74-.51,0-3.77,2.12-4.42,2.59Z"/>
      </g>
    </g>
    <path class="cls-13" d="M111.54,38.71c2.42-.07,12.94.53,14.48,1.89.92.81.37,2.38-.87,2.32-8.17-1.98-16.27-1.78-24.46-.07-1.06-.18-1.47-1.26-.81-2.12.86-1.12,9.89-1.98,11.66-2.03Z"/>
    <path class="cls-27" d="M109.26,47.84c2.16-.17,11.9-.21,13.18,1.19.47.51.41,1.47-.12,1.89-.95.75-4.6-.26-6-.33-2.13-.1-4.73-.09-6.87,0-1.48.06-6.99,1.82-6.07-1.21.32-1.05,4.74-1.45,5.89-1.54Z"/>
    <g>
      <path class="cls-12" d="M87.56,13.88c1.22-.17,2.15.05,3.22.63.92.5,1.96,2.06,2.17,2.13.4.12,1.87-.59,2.81-.56,5.28.13,6.41,6.55,2.85,10-1.36,1.32-7.97,4.91-9.71,4.87-1.27-.03-3.1-3.45-3.7-4.58-1.55-2.88-3.08-5.94-1.79-9.22.68-1.74,2.28-3.01,4.15-3.27ZM91.13,20.3c-.44-.5-.36-1.88-.92-2.65-1.67-2.29-4.79-.24-4.51,2.49.13,1.3,2.77,7.41,3.83,7.6.91.17,6.41-2.92,7.23-3.81,1.11-1.2,1.86-3.45.28-4.55-2.77-1.93-4.17,2.87-5.91.92Z"/>
      <path class="cls-9" d="M91.13,20.3c1.74,1.95,3.15-2.85,5.91-.92,1.58,1.11.83,3.36-.28,4.55-.82.89-6.32,3.98-7.23,3.81-1.05-.19-3.7-6.3-3.83-7.6-.28-2.73,2.84-4.78,4.51-2.49.56.76.48,2.15.92,2.65Z"/>
    </g>
  </g>
  <g>
    <g>
      <path class="cls-14" d="M51.46,131.37c-.21.33.02,4.85.25,5.07.12.12,2.67-.03,3.26.02,12.4,1.14,23.73,8.87,29.58,19.77.91,1.69,2.24,6.07,2.96,7.03.33.44,2.57,1.11,3.41,1.72,6.05,4.42,6.09,17.27-.16,21.52-.84.57-2.55.87-2.97,1.3-.36.37-1.71,4.51-2.18,5.52-14.33,30.58-54.91,28.28-69.8-1.43-.39-.78-.7-2.25-1.17-2.82-.5-.61-2.68-1.19-3.69-2.01-4.95-4.02-5.11-15.68-.16-19.79.8-.66,2.51-1.27,2.95-1.89.65-.9,1.63-4.59,2.27-6.01,4.66-10.34,14.25-18.88,25.31-21.75,1.13-.29,6.44-.92,6.68-1.17.15-.15-.32-4.08-.42-4.28-.25-.5-1.78-.87-2.41-1.3-5.59-3.8-2.61-12.65,4.69-11.82,4.83.55,6.87,6.64,4.13,10.41-.67.92-2.43,1.77-2.52,1.9ZM52.09,125.47c0-1.84-1.49-3.34-3.34-3.34s-3.34,1.49-3.34,3.34,1.49,3.34,3.34,3.34,3.34-1.49,3.34-3.34ZM45.71,140.74c-9.87.78-20.04,8.96-24.68,17.39-.4.72-2.98,6.01-2.7,6.28.13.12,2.62.38,3.42.72.74.31,2.66,1.82,3.14,2.42.77.99,1.09,2.82,2,3.71.02.09-.02.19,0,.29.1.44.57,2.3.57,2.42v6.85c0,.78-.92,2.34-.86,3.28-.25.5-.58,1.33-.86,1.71-.78,1.08-2.2,2.45-3.41,3.01-.93.43-3.03.59-3.15.7-.25.22,2.28,4.66,2.63,5.22,5.29,8.52,15.09,15.56,25.33,16.18.3.47,1.08.29,1.56.29,2.41.03,4.65-.04,6.99-.29,1.23-.13,2.81-.28,3.99-.57.63-.16,1.02-.45,1.43-.57,1.46-.44,2.33-.8,3.71-1.43,7.15-3.27,13.75-8.85,16.83-16.26,5.17-9.35,5.31-21.81.57-31.38-3.56-9.41-13.76-17.88-23.67-19.68-.04,0-.31-.23-.86-.29-.28-.03-.57.02-.86,0-.45-.83-9.73-.8-11.12,0ZM88.78,183.53c.09.12,1.22-.74,1.43-.99,2.93-3.52,2.69-12.4-1.57-14.98.57,3.81.93,7.69.72,11.57-.04.7-.71,4.23-.58,4.41ZM18.32,186.38c.15.13,1.37-.03,1.72-.13,6.51-1.87,5.45-18.83-1.58-18.43-1.8.1-.4.87.09,1.64,2.46,3.82,2.93,9.07,1.49,13.37-.2.59-1.87,3.42-1.72,3.55ZM12.42,170.49c-2.8,2.23-2.36,12.54,1.06,14.03,3.89,1.68,4.21-6.92,3.96-9.09-.24-2.04-2.29-7.1-5.02-4.94Z"/>
      <path class="cls-8" d="M57.69,140.74l.86.29c9.91,1.8,20.11,10.27,23.67,19.68,4.03,10.64,3.78,20.91-.57,31.38-3.08,7.41-9.68,12.98-16.83,16.26-1.83-.41-3.95.69-5.85.85-4.56.39-8.96-.09-13.26-1.56-9.45-3.21-17.77-12.02-19.96-21.83.28-.39.61-1.21.86-1.71,1.86-3.77,2.17-8.65.29-12.55-.02-.09.02-.2,0-.29-.37-1.49-.88-2.44-1.71-3.71,2.44-13.66,13.69-24.63,27.56-26.2,1.21-.14,2.54.11,3.68-.03.44-.06.68-.09.42-.57.28.02.58-.03.86,0ZM67.38,155.57h3.99c.9.38,2.43,1.69,2.99,1.69,2.25-.01,2.24-2.14.72-3.55-2.61-2.43-6.65-2.71-9.81-1.24-1.62.75-6.35,4.7-3.24,6.03,1.86.79,2.25-.96,3.37-1.9.67-.56,1.2-.73,1.97-1.02ZM42,160.99c.17,0,1.96.22,1.57-.29h-6.27c-.36.01.15.28.14.29-1.29,1.32-1.23,1.88,0,3.14.04.04-.16.5.18.58.94.23,3.73-.03,4.95-.01,2.05.02,5.17.26,7.08-.2,1.76-.42,4.93-3.15,2.89-4.78-1.51-1.2-2.21.58-3.14,1.1-1.29.73-4.24.48-5.83.46-.48,0-1.27.18-1.56-.29ZM69.95,163.56c-4.08,1.29-3.68,6.73,0,8.27,1.11.47,1.79.45,2.85,0,1.16-.49,2.39-1.97,2.85-3.14.42-1.07.45-1.21,0-2.28-.55-1.29-1.46-2.43-2.85-2.85.45-.81-2.1-.71-2.67-.58-.33.08-.15.31-.18.58ZM51.51,170.66c0-2.38-1.93-4.31-4.31-4.31s-4.31,1.93-4.31,4.31,1.93,4.31,4.31,4.31,4.31-1.93,4.31-4.31ZM64.82,183.53c.97.21,2.57,1.2,3.28-.28s-.21-2.35-1.42-2.85c-3.68-1.54-8.1-.08-11.46,1.67-.91.47-4.95,2.96-5.43,3.55-.99,1.24-.19,3.16,1.46,3.05.59-.04,4.26-2.74,5.29-3.28,1.45-.77,2.95-1.5,4.57-1.85h3.71Z"/>
      <path class="cls-25" d="M64.82,208.34c-1.37.63-2.25.98-3.71,1.43-.75.07-1.64-.35-1.43.57-1.18.29-2.76.44-3.99.57-2.83-.12-5.74.17-8.56,0-10.24-.61-20.04-7.65-25.33-16.18-.35-.56-2.88-4.99-2.63-5.22.12-.11,2.22-.27,3.15-.7,1.21-.56,2.63-1.93,3.41-3.01,2.19,9.81,10.51,18.61,19.96,21.83,4.31,1.47,8.7,1.95,13.26,1.56,1.9-.16,4.02-1.26,5.85-.85Z"/>
      <path class="cls-25" d="M45.71,140.74c3.16-.25,7.93-.19,11.12,0,.26.48.02.52-.42.57-1.14.15-2.47-.1-3.68.03-13.87,1.58-25.13,12.54-27.56,26.2h-.29c-.47-.61-2.4-2.11-3.14-2.42-.8-.34-3.3-.59-3.42-.72-.28-.27,2.31-5.55,2.7-6.28,4.64-8.43,14.81-16.61,24.68-17.39Z"/>
      <path class="cls-9" d="M12.42,170.49c2.73-2.17,4.78,2.89,5.02,4.94.25,2.17-.07,10.77-3.96,9.09-3.42-1.48-3.87-11.8-1.06-14.03Z"/>
      <path class="cls-9" d="M18.32,186.38c-.15-.13,1.52-2.96,1.72-3.55,1.44-4.29.97-9.54-1.49-13.37-.5-.77-1.9-1.54-.09-1.64,7.04-.4,8.09,16.56,1.58,18.43-.35.1-1.57.26-1.72.13Z"/>
      <circle class="cls-9" cx="48.75" cy="125.47" r="3.34"/>
      <path class="cls-9" d="M88.78,183.53c-.13-.18.54-3.71.58-4.41.21-3.88-.15-7.76-.72-11.57,4.26,2.58,4.51,11.46,1.57,14.98-.21.25-1.33,1.12-1.43.99Z"/>
      <path class="cls-20" d="M81.65,192.09c4.35-10.46,4.6-20.74.57-31.38,4.74,9.56,4.6,22.02-.57,31.38Z"/>
      <path class="cls-18" d="M26.59,184.1c-.06-.94.86-2.5.86-3.28v-6.85c0-.12-.47-1.98-.57-2.42,1.88,3.9,1.58,8.78-.29,12.55Z"/>
      <path class="cls-20" d="M56.83,140.74c-3.2-.19-7.96-.25-11.12,0,1.4-.8,10.67-.83,11.12,0Z"/>
      <path class="cls-18" d="M55.69,210.91c-2.34.25-4.58.32-6.99.29-.48,0-1.27.18-1.56-.29,2.82.17,5.73-.12,8.56,0Z"/>
      <path class="cls-18" d="M25.17,167.55c.84,1.27,1.34,2.22,1.71,3.71-.91-.88-1.23-2.72-2-3.71h.29Z"/>
      <path class="cls-20" d="M61.11,209.77c-.41.12-.79.41-1.43.57-.21-.92.67-.5,1.43-.57Z"/>
      <path class="cls-20" d="M58.54,141.03l-.86-.29c.54.06.81.28.86.29Z"/>
      <path class="cls-15" d="M61.11,183.53c-1.62.35-3.12,1.08-4.57,1.85-1.03.54-4.7,3.25-5.29,3.28-1.65.11-2.45-1.81-1.46-3.05.48-.6,4.52-3.08,5.43-3.55,3.36-1.74,7.79-3.2,11.46-1.67,1.21.51,2.12,1.4,1.42,2.85s-2.31.49-3.28.28c-1.68-.35-2-.37-3.71,0Z"/>
      <path class="cls-7" d="M72.8,163.56c1.39.42,2.31,1.56,2.85,2.85v2.28c-.46,1.17-1.69,2.65-2.85,3.14h-2.85c-3.68-1.55-4.08-6.98,0-8.27,1.21-.38,1.63-.37,2.85,0Z"/>
      <circle class="cls-7" cx="47.2" cy="170.66" r="4.31"/>
      <path class="cls-15" d="M42.57,164.7l-5.13-.57c-1.23-1.26-1.29-1.82,0-3.14,1.52-.01,3.05.02,4.56,0,.3.47,1.08.28,1.56.29,1.59.02,4.54.27,5.83-.46.93-.53,1.64-2.3,3.14-1.1,2.04,1.63-1.13,4.36-2.89,4.78-1.9.46-5.03.22-7.08.2Z"/>
      <path class="cls-15" d="M67.38,155.57c-.77.3-1.31.46-1.97,1.02-1.12.94-1.51,2.7-3.37,1.9-3.11-1.33,1.61-5.27,3.24-6.03,3.16-1.47,7.2-1.18,9.81,1.24,1.52,1.41,1.53,3.54-.72,3.55-.56,0-2.1-1.31-2.99-1.69-1.98-.84-2.02-.75-3.99,0Z"/>
      <path class="cls-18" d="M37.43,160.99s-.5-.27-.14-.29h6.27c.39.51-1.4.28-1.57.29-1.52.02-3.05-.01-4.56,0Z"/>
      <path class="cls-20" d="M71.38,155.57h-3.99c1.97-.75,2.02-.84,3.99,0Z"/>
      <path class="cls-20" d="M42.57,164.7c-1.23-.01-4.02.24-4.95.01-.34-.08-.14-.54-.18-.58l5.13.57Z"/>
      <path class="cls-18" d="M69.95,163.56c.03-.26-.15-.5.18-.58.57-.13,3.12-.23,2.67.58-1.22-.37-1.65-.38-2.85,0Z"/>
      <path class="cls-18" d="M64.82,183.53h-3.71c1.71-.37,2.03-.35,3.71,0Z"/>
      <path class="cls-18" d="M72.8,171.83c-1.06.45-1.74.47-2.85,0h2.85Z"/>
      <path class="cls-18" d="M75.66,168.7v-2.28c.45,1.07.42,1.21,0,2.28Z"/>
    </g>
    <g>
      <path class="cls-4" d="M51.17,12.14c-.14.22.3,4.54.51,4.68.36.25,6.04.58,7.21.78,10.47,1.76,19.42,8.42,24.81,17.41.54.91,1.24,2.99,1.82,3.6s2.6.93,3.59,1.54c6.24,3.84,7.05,16.34,1.24,20.72-.83.63-2.6,1.12-3.13,1.72s-1.9,4.8-2.52,6.04c-12.87,25.87-49.98,26.16-65.18,2.02-.41-.65-1.86-3.77-2.06-3.93-.39-.33-2.55-.7-3.43-1.14-6.41-3.14-7.25-15.17-2.41-19.83,1.15-1.11,3.78-1.92,4.43-2.7.68-.83,1.36-3.68,1.94-4.91,5.57-11.7,17.09-19.62,30-20.92-.54-1.04,0-3.76-.64-4.49-.18-.21-1.74-.61-2.31-.97-4.55-2.88-3.65-10.43,1.51-11.52,7.4-1.57,11.23,6.8,5.71,11.42-.3.25-1.01.37-1.08.48ZM51.75,6.34c0-1.82-1.48-3.3-3.3-3.3s-3.3,1.48-3.3,3.3,1.48,3.3,3.3,3.3,3.3-1.48,3.3-3.3ZM47.42,21.23c-.37,0-.79-.04-1.14,0-.5.06-1.27.48-1.71.57-.47.09-.74.19-1.14.29-9.46,2.35-17.12,8.03-21.5,16.86-.22.45-1.73,3.51-1.6,3.67.09.11,2.11.6,2.67.91.47.26,2.78,2.15,3.04,2.52.95,1.37,1.97,5.15,2.28,6.85v5.13c-.21,1.06-.71,3.02-1.14,3.99s-1.68,2.6-2.56,3.29c-.51.39-2.57,1.3-2.6,1.45-.21,1.29,4.46,6.99,5.58,8.11,5.32,5.34,12.18,8.3,19.55,9.41,3.11.47,6.31,1.12,9.41,0,.28-.02.57.03.86,0,.9-.08,1.35-.42,2-.57.45-.1.67-.14,1.14-.29.3-.09.57-.19.86-.29s.59-.21.86-.29.66.1.86-.29c.91-.13,1.02-.31,1.71-.57,22.99-8.74,26.69-39.92,7.11-54.6-6.82-5.11-13.55-6.49-21.94-6.44-.8,0-2-.23-2.57.29ZM88.21,58.31c3.87-3.01,3.64-10.67.57-14.13-2.62-2.96-1.27-.3-.95,1.52.76,4.26.83,8.3.37,12.61ZM19.18,63.72c.12.09,1.73.02,2.08-.06,5.37-1.19,4.91-15.47.13-17.41-.49-.2-2.83-.38-3.06-.21-.14.11,1.71,2.23,2.05,2.94,1.77,3.71,1.91,8.82.2,12.57-.19.42-1.5,2.1-1.39,2.17ZM15.05,47.87c-2.45-.09-3.36,5.35-3.29,7.17.08,2.09,1.89,9.37,5.01,6.7,3.04-2.61,2.13-13.73-1.71-13.86Z"/>
      <path class="cls-5" d="M64.82,81.98c-2.07,0-4.07.73-6.12.87-13.76.9-27.4-7.55-31.53-20.83.43-.97.93-2.93,1.14-3.99.4-2.02.37-3.09,0-5.13-.31-1.7-1.33-5.48-2.28-6.85.9-1.96,1.2-4.05,2.04-6.09,3.9-9.52,12.85-16.81,23.06-18.44l-1.14-.57c8.38-.05,15.12,1.33,21.94,6.44,19.58,14.68,15.88,45.85-7.11,54.6ZM70.81,42.91c0,.18-2.5,1.24-3.14,1.85-1.35,1.27-3.38,5.74-.43,5.82,2.39.06,1.3-3.78,4.6-4.23,3.74-.51,3.18,3.8,5.61,3.36,3.67-.66-.99-6.34-3.5-6.8-.91-.63-2.36-.14-3.42-.28-.05.32.29.26.29.28ZM43.14,43.19c-1.21,0-2.76-.25-2.84,1.31-.14,2.67,4.75,1.67,5.98,3.53-1.71-.37-9.22,2.02-6.98,4.55,1.27,1.43,2.33-.09,3.47-.49,1.03-.36,2.59-.88,3.66-.92,1.98-.08,5.32,1.8,6.2-.37.31-.77-.08-1.06-.43-1.71-1.38-2.62-4.61-4.51-7.36-5.33.25-.88-.92-.57-1.71-.57ZM80.14,52.98c-1.72-.65-5.65.53-5.9,2.64-.1.87.21,1.81.94,2.3.23.15.61.03.81.12.31.14.17.5.65.57.73.1,3.02.1,3.75,0,.48-.06.33-.43.65-.57.21-.09.58.03.81-.12.93-.62,1.15-2.07.93-3.12-.02-.09-1.12-1.24-1.2-1.27-.42-.15-.86,0-1.15-.09-.25-.09-.22-.44-.29-.47ZM39.92,55.83c-1.62-.63-1.98.44-2.11.47-1.06.23-.95.11-1.9.48-.64.25-1.29.19-1.69,1.03-1.29,2.74.59,3.06,2.48,4.22,1.23-.23,3.13.24,4.24-.03.19-.05.2-.42.3-.46,1.76-.72,3.12-1.33,2.27-3.74-.05-.15-1.61-1.46-1.72-1.48-.52-.11-1.09.09-1.6-.02-.2-.04-.2-.45-.27-.47ZM55.12,58.59c.27-.91-1.17-.55-2-.57-3.65-.08-6.08.79-7.13,4.56-.48,1.71-.36,1.38.29,2.85,1.25,2.85,2.53,2.76,4.28,4.56.04.04-.11.43.04.53.2.13.68-.04.87.06,5.83,3.13,14.68,1.58,19.61-2.51.83-.69.87-.91,1.16-1.79.03-.08-.02-.2,0-.29.88.14.45-.24.57-.57.91-2.43,1.64-4.96-.28-7.2-3.25-3.77-8.34.58-12.13.92-1.66.15-3.61-.27-5.27-.57Z"/>
      <path class="cls-25" d="M27.17,62.02c4.13,13.29,17.77,21.73,31.53,20.83,2.05-.13,4.06-.87,6.12-.87-.69.26-.8.44-1.71.57-.3.04-.71-.11-.86.29-.27.08-.58.2-.86.29h-1.14s.29.29.29.29c-.47.14-.69.18-1.14.29-.82.13-2.24-.44-2,.57-.28.03-.57-.02-.86,0-3.11.18-6.29-.13-9.41,0-7.37-1.11-14.23-4.07-19.55-9.41-1.11-1.12-5.79-6.82-5.58-8.11.02-.15,2.09-1.06,2.6-1.45.88-.69,2.11-2.28,2.56-3.29Z"/>
      <path class="cls-23" d="M49.98,20.94l1.14.57c-10.21,1.63-19.16,8.93-23.06,18.44-.84,2.04-1.14,4.13-2.04,6.09-.26-.38-2.57-2.26-3.04-2.52-.55-.3-2.58-.79-2.67-.91-.12-.16,1.38-3.22,1.6-3.67,4.38-8.83,12.04-14.51,21.5-16.86h1.43s-.29-.29-.29-.29c.44-.09,1.21-.51,1.71-.57,1.39.76,4.27-.02,1.14,0,.56-.52,1.76-.28,2.57-.29Z"/>
      <circle class="cls-26" cx="48.45" cy="6.34" r="3.3"/>
      <path class="cls-16" d="M88.21,58.31c.46-4.31.38-8.35-.37-12.61-.32-1.82-1.68-4.47.95-1.52,3.07,3.45,3.29,11.12-.57,14.13Z"/>
      <path class="cls-20" d="M56.54,84.27c-3.1,1.12-6.3.47-9.41,0,3.12-.13,6.3.18,9.41,0Z"/>
      <g>
        <path class="cls-16" d="M15.05,47.87c3.85.13,4.75,11.25,1.71,13.86-3.11,2.67-4.93-4.6-5.01-6.7-.07-1.82.84-7.25,3.29-7.17Z"/>
        <path class="cls-16" d="M19.18,63.72c-.1-.08,1.2-1.75,1.39-2.17,1.71-3.75,1.57-8.86-.2-12.57-.34-.71-2.19-2.83-2.05-2.94.23-.17,2.57.01,3.06.21,4.78,1.94,5.24,16.22-.13,17.41-.35.08-1.96.15-2.08.06Z"/>
        <path class="cls-18" d="M28.31,58.02v-5.13c.37,2.04.4,3.11,0,5.13Z"/>
      </g>
      <path class="cls-20" d="M59.4,83.69c-.64.15-1.1.49-2,.57-.25-1.01,1.18-.44,2-.57Z"/>
      <path class="cls-18" d="M47.42,21.23c3.13-.02.25.76-1.14,0,.35-.04.77,0,1.14,0Z"/>
      <path class="cls-18" d="M44.56,21.8l.29.28h-1.43c.4-.1.67-.19,1.14-.28Z"/>
      <path class="cls-18" d="M61.39,83.12c-.29.09-.55.19-.86.29l-.29-.28h1.14Z"/>
      <path class="cls-18" d="M63.11,82.55c-.2.38-.6.21-.86.29.14-.39.56-.24.86-.29Z"/>
      <path class="cls-15" d="M43.14,43.19c.44.34,1.14.4,1.71.57,2.75.82,5.97,2.72,7.36,5.33.34.65.74.94.43,1.71-.88,2.17-4.22.28-6.2.37-1.07.05-2.62.56-3.66.92-1.15.41-2.2,1.93-3.47.49-2.24-2.53,5.27-4.93,6.98-4.55-1.23-1.86-6.12-.86-5.98-3.53.08-1.57,1.64-1.32,2.84-1.31Z"/>
      <path class="cls-15" d="M73.94,42.91c2.51.46,7.17,6.14,3.5,6.8-2.43.44-1.87-3.88-5.61-3.36-3.3.45-2.21,4.29-4.6,4.23-2.95-.08-.92-4.55.43-5.82.64-.6,3.14-1.67,3.14-1.85.96.12,2.24-.17,3.14,0Z"/>
      <path class="cls-24" d="M39.92,55.83c.07.03.07.43.27.47.5.11,1.08-.09,1.6.02.11.02,1.66,1.33,1.72,1.48.85,2.41-.51,3.02-2.27,3.74-.1.04-.11.42-.3.46-1.11.28-3.01-.19-4.24.03-1.89-1.16-3.77-1.49-2.48-4.22.4-.84,1.05-.78,1.69-1.03.95-.37.84-.25,1.9-.48.14-.03.49-1.1,2.11-.47Z"/>
      <path class="cls-24" d="M80.14,52.98c.07.03.04.38.29.47.28.1.72-.06,1.15.09.08.03,1.18,1.18,1.2,1.27.22,1.05,0,2.5-.93,3.12-.23.15-.61.03-.81.12-.31.14-.17.5-.65.57-.73.1-3.02.1-3.75,0-.48-.06-.33-.43-.65-.57-.21-.09-.58.03-.81-.12-.73-.49-1.05-1.43-.94-2.3.25-2.11,4.19-3.3,5.9-2.64Z"/>
      <path class="cls-18" d="M73.94,42.91c-.9-.17-2.18.12-3.14,0,0-.02-.33.04-.29-.28,1.07.14,2.51-.35,3.42.28Z"/>
      <path class="cls-18" d="M43.14,43.19c.8,0,1.96-.31,1.71.57-.58-.17-1.27-.23-1.71-.57Z"/>
      <g>
        <path class="cls-12" d="M55.12,58.59c1.67.29,3.62.71,5.27.57,3.79-.34,8.88-4.69,12.13-.92,1.93,2.23,1.19,4.77.28,7.2-.27.11-.49.28-.57.57-.02.09.03.2,0,.29-4.34,4.56-10.98,6.23-17.11,5.13l-.86-.29c-1.26-.3-2.45-.85-3.71-1.14-1.75-1.81-3.02-1.72-4.28-4.56l-.29-2.85c1.05-3.78,3.49-4.64,7.13-4.56.48.29,1.42.47,2,.57ZM68.52,65.72c2.3-.48,3.8-5.15,1.42-6.13-.35-.14-1.55-.28-1.7-.15-.17.14.28.66.28.71v5.56ZM66.24,60.3l-4.25,1.17c.33,1.02.01,7.11.26,7.39.14.16,3.99-.93,3.99-1.14v-7.42ZM52.55,67.72c.22-.25,0-5.74,0-6.7s-3.75-.3-3.9,2.32c-.12,2.01,3.31,5.05,3.9,4.38ZM54.83,61.16c-.25.27,0,6.24,0,7.27,0,.53,4.95.9,5.14.71.26-.26-.65-6.42-.28-7.42-.77.37-4.68-.75-4.85-.57Z"/>
        <path class="cls-18" d="M72.16,66.42c.13.27-.23.75-.39.96-.84,1.07-2.2,1.86-3.38,2.49-1.24.66-2.56,1.18-3.92,1.57-2.75.78-5.68,1.05-8.51.61-1.56-.24-3.1-.71-4.49-1.46-.2-.1-.68.07-.87-.06-.15-.1,0-.49-.04-.53,1.26.29,2.45.84,3.71,1.14.13.03.38.2.86.29,2.97.53,6.07.42,8.98-.38,1.52-.41,2.98-1.01,4.34-1.8.69-.4,1.36-.85,1.99-1.34.31-.24.61-.49.9-.76.26-.23.48-.62.82-.74Z"/>
        <path class="cls-18" d="M46.28,65.44c-.65-1.47-.76-1.14-.29-2.85l.29,2.85Z"/>
        <path class="cls-18" d="M53.12,58.02c.83.02,2.27-.34,2,.57-.57-.1-1.51-.28-2-.57Z"/>
        <path class="cls-18" d="M72.8,65.44c-.12.33.31.71-.57.57.08-.29.3-.47.57-.57Z"/>
        <path class="cls-19" d="M54.83,61.16c.17-.18,4.08.94,4.85.57-.37,1,.55,7.16.28,7.42-.19.19-5.14-.19-5.14-.71,0-1.03-.25-7.01,0-7.27Z"/>
        <path class="cls-19" d="M66.24,60.3v7.42c0,.21-3.85,1.3-3.99,1.14-.24-.28.08-6.36-.26-7.39l4.25-1.17Z"/>
        <path class="cls-19" d="M52.55,67.72c-.59.67-4.02-2.37-3.9-4.38.15-2.62,3.9-3.27,3.9-2.32s.22,6.45,0,6.7Z"/>
        <path class="cls-19" d="M68.52,65.72v-5.56c0-.05-.45-.57-.28-.71.16-.13,1.36,0,1.7.15,2.38.98.88,5.64-1.42,6.13Z"/>
        <path class="cls-20" d="M55.12,71.43c-.47-.08-.72-.25-.86-.29l.86.29Z"/>
      </g>
    </g>
  </g>
  <g>
    <path class="cls-13" d="M104.67,179.58c.76-.22,5.19.75,6.5.81.94.04,1.92.04,2.86.02,1.95-.05,5.23-.95,6.82-.85,1.31.08,1.81,1.63,1.02,2.42-1.36,1.35-16.27,1.42-17.7,0-.59-.58-.38-2.14.5-2.39Z"/>
    <path class="cls-27" d="M184.82,96.86c1.91-.52,2.76,4.78,3.08,6.23.48,2.21,1.39,6.59,1,8.7-.22,1.17-2.22.93-2.51-.06-.45-1.54-.39-4.11-.71-5.85-.26-1.4-.58-2.83-.91-4.22-.3-1.26-2.04-4.23.06-4.8Z"/>
    <g>
      <path class="cls-27" d="M24.24,92.04c3.87-.51,8,1.38,9.82,4.87.49.95.91,3.22,1.24,3.61.23.28,2.43,1.09,3.08,1.49,5.1,3.12,5.97,10.5,1.78,14.79-.55.56-2.75,1.8-2.87,1.98-.26.44-.28,2.15-.51,2.91-1.54,5.14-6.56,7.51-11.67,6.14-.59-.16-1.31-.78-1.8-.77-.32,0-2.02,1.52-2.69,1.86-5.12,2.62-11.42.34-13.56-5.01-.34-.84-.54-2.63-.87-3.12-.2-.3-2.2-1.23-2.83-1.73-3.94-3.12-4.53-9.37-1.13-13.1.49-.54,2.11-1.44,2.26-1.73.29-.52.33-3.37.78-4.64,1.61-4.55,6.75-6.97,11.36-5.78.63.16,2.04,1.03,2.37.97.15-.03,1.8-1.5,2.45-1.82.78-.39,1.94-.8,2.79-.91ZM8.84,118.56c.52.5.3,2.5.48,3.37.96,4.67,6.85,6.73,10.69,4.1.75-.51,1.99-2.34,2.74-2.41.83-.09,2.5,1.44,3.77,1.65,3.55.6,7.09-1.27,7.71-4.99.16-.97-.18-2.72.33-3.38.29-.37,2.5-1.09,3.31-1.83,3.54-3.21,2.48-9.7-2.05-11.35-1.23-.45-3.08-.08-3.45-1.69-.34-1.49.11-2.35-.86-3.99-2.01-3.43-6.53-4.17-9.74-1.92-.65.46-1.78,2.09-2.43,2.11-.7.03-2.03-1.17-2.8-1.48-4.18-1.66-8.97,1.37-9.05,5.92-.02.91.66,2.15.15,2.99-.18.29-2.32,1.2-2.99,1.85-2.79,2.74-2.21,7.67,1.04,9.79.81.53,2.92,1.01,3.17,1.25Z"/>
      <path class="cls-13" d="M21.99,138.22c0,2.99-2.42,5.41-5.41,5.41s-5.41-2.42-5.41-5.41,2.42-5.41,5.41-5.41,5.41,2.42,5.41,5.41ZM19.21,138.24c0-1.46-1.18-2.64-2.64-2.64s-2.64,1.18-2.64,2.64,1.18,2.64,2.64,2.64,2.64-1.18,2.64-2.64Z"/>
      <path class="cls-22" d="M8.84,118.56c-.25-.24-2.35-.72-3.17-1.25-3.26-2.12-3.83-7.05-1.04-9.79.67-.66,2.82-1.56,2.99-1.85.51-.83-.17-2.08-.15-2.99.09-4.55,4.87-7.58,9.05-5.92.78.31,2.1,1.5,2.8,1.48.65-.03,1.78-1.65,2.43-2.11,3.21-2.25,7.73-1.51,9.74,1.92.96,1.64.51,2.5.86,3.99.37,1.61,2.22,1.24,3.45,1.69,4.53,1.65,5.59,8.14,2.05,11.35-.81.73-3.02,1.46-3.31,1.83-.51.66-.17,2.42-.33,3.38-.62,3.72-4.16,5.6-7.71,4.99-1.26-.22-2.94-1.74-3.77-1.65-.75.08-1.99,1.9-2.74,2.41-3.85,2.63-9.73.57-10.69-4.1-.18-.87.04-2.88-.48-3.37Z"/>
      <circle class="cls-19" cx="16.57" cy="138.24" r="2.64"/>
    </g>
    <g>
      <g>
        <path class="cls-27" d="M107.78,113.75c2.45,1.57,4.85,4.4,5.82,7.15.23.65.7,3.46.85,3.58.17.13,2.78-1.88,3.6-2.24,11.33-4.99,26.39,2.91,23.07,16.22-.34,1.37-2.14,4.29-2.16,4.98-.05,1.8,3.29,7.53,1.94,8.93-.42.44-1.01.23-1.5.09-2.12-.61-5.94-3.51-7.73-3.72-1.21-.14-3.41.74-4.83.84-7.08.54-14.66-3.44-16.98-10.39-.21-.63-.46-2.89-.56-3.01-.11-.14-2.52,1.71-3.03,1.96-2.79,1.38-6.29,1.96-9.39,1.76-1.18-.08-3.71-.92-4.49-.81-1.78.25-5.68,3.33-7.91,3.81-4.49.96.69-7.4.5-9.1-.06-.52-1.35-2.07-1.7-2.84-6.49-14.27,12.16-25.1,24.48-17.2ZM86.21,139.03c.21.27,5.07-2.78,6.15-2.85.92-.06,3.67,1.04,5.12,1.13,14.21.89,20.08-17.04,6.52-22.49-9.86-3.96-22.49,3.51-18.29,14.58.41,1.09,2.16,3.28,2.21,3.79.1,1-2.05,5.39-1.71,5.83ZM137.55,148.44c.34-.36-1.79-4.83-1.63-5.8.14-.82,2.29-3.08,2.65-5.02,2.69-14.79-19.28-19.52-25.31-7.34-4.29,8.66,3.46,16.73,12.15,16.71,1.97,0,5.05-1.31,6.57-1.1.88.12,5.33,2.82,5.58,2.55Z"/>
        <path class="cls-6" d="M137.55,148.44c-.26.27-4.71-2.43-5.58-2.55-1.52-.21-4.6,1.1-6.57,1.1-8.69.01-16.43-8.05-12.15-16.71,6.03-12.18,28-7.44,25.31,7.34-.35,1.94-2.51,4.2-2.65,5.02-.16.97,1.98,5.44,1.63,5.8ZM124.93,126.81c-.6.1-1.23.63-1.35,1.24-.33,1.7.01,6.67.3,8.53s2.75,2.08,3.09-.3c.23-1.59.52-6.47.29-7.94-.18-1.16-1.19-1.74-2.34-1.54ZM126.93,142.96c1.61-1.61-1.29-4.63-2.99-2.71s1.48,4.23,2.99,2.71Z"/>
        <path class="cls-11" d="M86.21,139.03c-.35-.44,1.8-4.83,1.71-5.83-.05-.51-1.8-2.7-2.21-3.79-4.2-11.07,8.43-18.54,18.29-14.58,13.56,5.44,7.7,23.37-6.52,22.49-1.45-.09-4.2-1.19-5.12-1.13-1.07.07-5.94,3.11-6.15,2.85ZM99.3,128.73c.07-.06.23-1.27.6-1.83,1.05-1.57,3.53-1.93,3.72-4.57.29-4-3.59-5.2-6.93-4.63-3.59.61-5.47,5.69-1.79,5.07,1.26-.21,1.22-1.84,2.27-2.31,1.73-.79,3.74.57,2.81,2.53-.35.75-2.02,1.44-2.65,2.2-.56.68-1.42,2.86-.58,3.45.27.19,2.42.21,2.56.1ZM99.89,132.09c0-1.02-.83-1.85-1.85-1.85s-1.85.83-1.85,1.85.83,1.85,1.85,1.85,1.85-.83,1.85-1.85Z"/>
        <path class="cls-27" d="M124.93,126.81c1.14-.2,2.16.38,2.34,1.54.23,1.47-.07,6.35-.29,7.94-.34,2.38-2.81,2.17-3.09.3s-.62-6.83-.3-8.53c.12-.62.75-1.14,1.35-1.24Z"/>
        <path class="cls-13" d="M126.93,142.96c-1.52,1.52-4.72-.77-2.99-2.71s4.6,1.1,2.99,2.71Z"/>
        <path class="cls-13" d="M99.3,128.73c-.13.12-2.29.09-2.56-.1-.83-.58.02-2.77.58-3.45.63-.76,2.29-1.45,2.65-2.2.92-1.96-1.08-3.32-2.81-2.53-1.05.48-1.01,2.1-2.27,2.31-3.68.62-1.8-4.46,1.79-5.07,3.34-.56,7.22.63,6.93,4.63-.19,2.64-2.67,2.99-3.72,4.57-.37.56-.52,1.77-.6,1.83Z"/>
        <circle class="cls-27" cx="98.04" cy="132.09" r="1.85"/>
      </g>
      <g>
        <path class="cls-21" d="M114.74,88.26c.15.12,2.61-1.85,3.13-2.14,2.97-1.67,6.41-2.57,9.86-2.43,1.68.07,4.23,1.05,5.67.86,1.89-.26,7.15-4.13,8.57-3.99.65.06,1.28.8,1.25,1.49-.1,1.98-2.53,6.39-2.49,8.08.02.87,2.58,4.52,2.82,7.13,1.5,16.16-20.07,22.84-29.94,11.11-.7-.84-2.47-4.36-2.72-4.41-.28-.06-3.92,2.34-4.99,2.71-12.34,4.22-26.47-5.73-20.87-19.16.29-.7.87-1.13,1.05-1.53.48-1.06-2-6.31-2.31-7.96-.28-1.52.48-1.96,1.95-1.66,1.86.38,5.93,3.37,7.55,3.59.92.13,3.56-.92,4.82-1.05,6.38-.64,13.15,2.17,16.19,7.99.2.39.41,1.35.47,1.39ZM109.78,85.22c-2.55-2.48-7.06-3.99-10.59-3.8-1.62.09-4.89,1.46-5.69,1.42-1.11-.06-5.72-2.97-6.15-2.56-.22.2,1.77,4.64,1.7,5.54-.06.83-1.11,1.75-1.47,2.53-5.66,12.4,10.5,21.15,20.62,14.06,5.93-4.15,6.87-12.04,1.57-17.19ZM139.55,84.84c-.51-.48-5.24,2.67-6.2,2.8-.8.11-3.01-.96-4.22-1.08-1.46-.14-3.84-.1-5.29.12-1.94.3-7.73,2.84-7.97,4.89-.22,1.89.2,3.29-.43,5.53-.91,3.22-3.12,3.43-1.39,7.09,6.58,13.9,31.61,6.47,26.2-9.08-.4-1.14-2.36-3.71-2.42-4.16-.17-1.21,1.95-5.9,1.72-6.12Z"/>
        <path class="cls-6" d="M139.55,84.84c.23.22-1.89,4.9-1.72,6.12.06.45,2.03,3.02,2.42,4.16,5.41,15.55-19.62,22.98-26.2,9.08-1.73-3.66.48-3.87,1.39-7.09.63-2.24.21-3.64.43-5.53.23-2.05,6.03-4.6,7.97-4.89,1.45-.22,3.83-.27,5.29-.12,1.21.12,3.42,1.19,4.22,1.08.96-.13,5.68-3.28,6.2-2.8ZM125.64,101.6c.95.95,2.74.13,2.77-1.23-.15-1.78,1-8.57-.11-9.56-.94-.83-3.02-.7-3.29.74-.22,1.15-.07,4.1,0,5.41.04.78.35,4.36.64,4.64ZM128.84,105.69c0-1.12-.9-2.02-2.02-2.02s-2.02.9-2.02,2.02.9,2.02,2.02,2.02,2.02-.9,2.02-2.02Z"/>
        <path class="cls-11" d="M109.78,85.22c5.3,5.15,4.35,13.05-1.57,17.19-10.12,7.09-26.28-1.67-20.62-14.06.36-.78,1.41-1.71,1.47-2.53.06-.9-1.92-5.34-1.7-5.54.43-.4,5.05,2.5,6.15,2.56.79.05,4.06-1.33,5.69-1.42,3.53-.19,8.04,1.33,10.59,3.8ZM98.11,85.47c-3.14.63-5.43,5.71-1.51,5.07,1.07-.17,1.01-1.31,1.57-1.87,1.06-1.06,3.31-.81,3.46.87.19,2.1-1.9,2.3-2.88,3.71-1.27,1.83-.77,4.13,1.82,3.24.51-.18.71-1.63,1.2-2.22,1.14-1.37,3.13-1.49,3.48-3.95.59-4.07-3.79-5.52-7.15-4.85ZM101.52,99.81c0-1.02-.83-1.86-1.86-1.86s-1.86.83-1.86,1.86.83,1.86,1.86,1.86,1.86-.83,1.86-1.86Z"/>
        <path class="cls-13" d="M125.64,101.6c-.29-.29-.59-3.86-.64-4.64-.07-1.31-.22-4.26,0-5.41.27-1.43,2.35-1.57,3.29-.74,1.11.99-.05,7.78.11,9.56-.03,1.37-1.82,2.18-2.77,1.23Z"/>
        <circle class="cls-21" cx="126.83" cy="105.69" r="2.02"/>
        <path class="cls-13" d="M98.11,85.47c3.35-.67,7.73.79,7.15,4.85-.35,2.46-2.35,2.58-3.48,3.95-.49.59-.69,2.04-1.2,2.22-2.58.89-3.08-1.41-1.82-3.24.98-1.41,3.07-1.61,2.88-3.71-.15-1.67-2.4-1.92-3.46-.87-.56.56-.5,1.7-1.57,1.87-3.92.64-1.64-4.45,1.51-5.07Z"/>
        <circle class="cls-27" cx="99.66" cy="99.81" r="1.86"/>
      </g>
    </g>
  </g>
  <g>
    <path class="cls-21" d="M129.21,195.29c.92.92.36,1.95-.71,2.43-6.52,2.94-23.75,2.48-30.54.14-.85-.29-1.42-.27-1.47-1.38-.14-2.81,4.03-.76,5.63-.49,7.53,1.26,14.27,1.25,21.79,0,1.21-.2,4.5-1.5,5.29-.7Z"/>
    <path class="cls-13" d="M125.22,189.73c-1.03,1.19-11.74,1.85-13.77,1.79-2.28-.06-7.43-.59-9.49-1.35-1.12-.41-1.79-1.54-.91-2.52.69-.78,5.15.53,6.46.68,3.59.42,7.2.42,10.8.03,1.38-.15,5.05-1.16,5.96-1.05,1.08.13,1.62,1.65.96,2.41Z"/>
  </g>
  <g>
    <path class="cls-13" d="M202.54,89.45c1.53.94,4.2,17.74,4.34,20.33.32,6.07-.1,18.69-2.3,24.25-.77,1.94-2.92,1.6-2.82-.24,3.95-14.24,3.01-29.12-1.47-43.11-.45-1.31,1.56-1.66,2.26-1.23Z"/>
    <path class="cls-21" d="M194.24,93.75c.62.58,1.73,5.54,1.98,6.72,1.37,6.38,2.13,14.24,1.2,20.71-.13.92-.46,1.91-1.54,1.91-2.15,0-1.02-2.91-.99-4.15.16-6.74-.17-11.88-1.53-18.46-.31-1.52-1.36-4.2-1.36-5.51,0-1.42,1.35-2.03,2.24-1.2Z"/>
    <g>
      <path class="cls-14" d="M178.67,12.72c-.43.65-.14,3.56-.62,4.51,11.96,1.1,23.57,8.55,29.14,19.21.78,1.5,2.11,5.77,2.79,6.62.44.54,3.13,1.51,4.14,2.42,5.12,4.57,4.41,16.91-2.12,20.11-.83.41-3.08.83-3.36,1.06-.22.17-2.1,4.1-2.63,4.93-15.77,24.34-53.15,21.93-65.38-4.52-.49-1.05-1.13-3.69-1.65-4.34s-2.64-1.36-3.57-2.14c-5.38-4.48-4.6-16.28,1.18-20.2.98-.66,3.49-1.26,3.94-1.77.41-.46,1.62-3.42,2.2-4.36,5.77-9.44,15.95-15.69,26.91-17.02.69-.08,4.76-.08,4.99-.29.17-.16.04-3.96.29-4.65-6.9-3.92-3.38-13.77,4.64-12.12,4.61.95,5.95,7.91,2.3,11.02-.75.64-3.09,1.37-3.19,1.52ZM180.95,6.32c0-1.83-1.48-3.31-3.31-3.31s-3.31,1.48-3.31,3.31,1.48,3.31,3.31,3.31,3.31-1.48,3.31-3.31ZM167.79,21.51c-8.45.84-17.69,7.87-21.91,15.03-10.1,17.15-2.77,37.35,15.06,45.15,3.3,1.45,4.91,1.99,8.56,2.57.53.08,1.99.57,2.42.57h4.85c.44,0,1.9-.49,2.42-.57,7.9-1.25,15.03-4.52,20.4-10.55.63-.71,5.11-6.69,4.7-7.13-.04-.05-.85-.11-1.25-.32-1.38-.7-3.16-2.34-3.88-3.68-.52-.96-1.2-3.45-1.43-4.56v-5.13c.39-2.15,1.27-5.06,2.57-6.85.76-1.05,1.85-1.95,2.99-2.58.55-.3,2.36-.75,2.43-.85.2-.27-2.47-5.36-2.91-6.07-4.56-7.48-14.21-14.35-23.05-15.32-.42-.05-.99-.02-1.43,0-.66-.52-1.96-.28-2.85-.29-1.67,0-3.49-.1-5.13,0-.74.04-1.91.22-2.57.57ZM137.83,58.31c-.71-5.22-.17-10.27.86-15.4-4.48,3.35-4.97,11.63-.86,15.4ZM207.72,46.05c-.16-.12-2.44,0-2.87.12-2.33.72-3.76,5.59-3.94,7.75-.31,3.8.8,10.51,5.95,9.66-3.17-3.68-3.17-10.11-1.28-14.41.32-.72,2.29-3.02,2.14-3.13ZM211.05,47.81c-2.86.27-3.79,6.96-3.57,9.18.85,8.56,6.51,5.51,6.82-1.66.07-1.71-.75-7.74-3.25-7.51Z"/>
      <path class="cls-17" d="M175.49,20.94l-.85.57c10.89,1.45,20.05,9.44,23.89,19.61.61,1.62.68,3.72,1.78,4.92-1.29,1.78-2.17,4.7-2.57,6.85-.36,1.99-.42,3.1,0,5.13.23,1.11.91,3.61,1.43,4.56-1.28,1.72-1.9,3.86-3.02,5.68-6,9.81-17.6,15.42-29.07,14.57l-6.14-1.14c-17.83-7.81-25.16-28.01-15.06-45.15,4.22-7.17,13.46-14.19,21.91-15.03,1.09-.11,2.31.08,3.42,0l-.85-.57c1.65-.1,3.46,0,5.13,0ZM149.25,40.05c-.67.84-1.71.89-.99,2.56.44,1.02,4.34,3.12,5.27,4.14-2.8.69-4.5,2.55-3.86,5.58.9,4.27,7.35,4.08,8.31,0,.14-.59.06-2.21.13-2.3.08-.11,1.3,1.32,2.55.42.84-.61.87-1.97.17-2.71-1.07-1.14-10.34-7.05-10.42-7.69,0-.02.27-.13.29-.28h-1.57c-.35,0,.15.27.14.28ZM180.34,48.61c-.31-.41,5.69-3.29,6.14-3.7,1.55-1.43-.03-3.55-1.77-2.93-1.74,1.45-12.12,5.9-12.58,7.41-.38,1.27.41,2.49,1.77,2.37.44-.04,1.27-.63,1.31-.57.4.56-.82,3.28,1.45,4.97,4.78,3.59,9.46-3.25,5.55-6.69-.51-.45-1.79-.77-1.86-.86ZM162.65,60.3c-.19.02-.38-.01-.57,0-.87.07-2.2-.36-1.43.57-1.25.38-2.37.75-3.51,1.48-1.34.85-6.07,4.68-2.97,6.01,1.9.81,2.25-1,3.34-1.93,4.72-4.06,11.56-3.79,15.99.57,1.1,1.08,1.52,3.01,3.26,3.02,3.05.02.95-3.45-.13-4.73-2.27-2.68-5.71-4.45-9.13-4.98.16-.86-.44-.55-.99-.57-.95-.04-1.93-.03-2.88,0-.55.02-1.14-.29-.99.57Z"/>
      <path class="cls-23" d="M199.16,62.59c.72,1.34,2.5,2.98,3.88,3.68.41.2,1.21.27,1.25.32.41.45-4.07,6.43-4.7,7.13-5.37,6.03-12.5,9.3-20.4,10.55h-9.7c-3.65-.58-5.26-1.12-8.56-2.57l6.14,1.14c11.47.86,23.06-4.75,29.07-14.57,1.12-1.82,1.74-3.96,3.02-5.68Z"/>
      <path class="cls-23" d="M178.34,21.23c-2.15.1.48.7,1.43,0,8.84.97,18.49,7.83,23.05,15.32.43.71,3.11,5.81,2.91,6.07-.08.1-1.88.55-2.43.85-1.14.62-2.23,1.53-2.99,2.58-1.1-1.2-1.17-3.31-1.78-4.92-3.84-10.17-13-18.16-23.89-19.61l.85-.57c.9,0,2.2-.24,2.85.29Z"/>
      <path class="cls-9" d="M211.05,47.81c2.5-.23,3.32,5.8,3.25,7.51-.31,7.17-5.97,10.23-6.82,1.66-.22-2.21.71-8.91,3.57-9.18Z"/>
      <path class="cls-9" d="M207.72,46.05c.15.11-1.82,2.42-2.14,3.13-1.89,4.3-1.89,10.73,1.28,14.41-5.15.85-6.26-5.86-5.95-9.66.18-2.17,1.61-7.04,3.94-7.75.43-.13,2.71-.24,2.87-.12Z"/>
      <circle class="cls-9" cx="177.65" cy="6.32" r="3.31"/>
      <path class="cls-9" d="M137.83,58.31c-4.12-3.77-3.63-12.05.86-15.4-1.02,5.13-1.56,10.18-.86,15.4Z"/>
      <path class="cls-20" d="M179.2,84.27c-.53.08-1.99.57-2.42.57h-4.85c-.44,0-1.9-.49-2.42-.57h9.7Z"/>
      <path class="cls-18" d="M197.74,58.02c-.42-2.03-.36-3.14,0-5.13v5.13Z"/>
      <path class="cls-18" d="M170.36,20.94l.85.57c-1.11.08-2.33-.11-3.42,0,.65-.35,1.83-.53,2.57-.57Z"/>
      <path class="cls-18" d="M178.34,21.23c.44-.02,1-.05,1.43,0-.95.7-3.58.1-1.43,0Z"/>
      <path class="cls-7" d="M180.34,48.61c.06.08,1.34.4,1.86.86,3.91,3.44-.76,10.28-5.55,6.69-2.26-1.7-1.04-4.42-1.45-4.97-.04-.06-.87.53-1.31.57-1.36.13-2.15-1.1-1.77-2.37.45-1.51,10.83-5.96,12.58-7.41,1.74-.61,3.32,1.5,1.77,2.93-.44.41-6.45,3.29-6.14,3.7Z"/>
      <path class="cls-7" d="M150.39,40.05c.08.64,9.35,6.55,10.42,7.69.7.73.67,2.1-.17,2.71-1.25.91-2.47-.53-2.55-.42-.07.09.01,1.71-.13,2.3-.95,4.08-7.4,4.27-8.31,0-.64-3.03,1.06-4.89,3.86-5.58-.92-1.02-4.83-3.12-5.27-4.14-.72-1.68.32-1.72.99-2.56h1.14Z"/>
      <path class="cls-15" d="M167.5,60.3c3.43.53,6.87,2.3,9.13,4.98,1.08,1.28,3.17,4.75.13,4.73-1.74-.01-2.16-1.94-3.26-3.02-4.43-4.36-11.27-4.63-15.99-.57-1.09.94-1.44,2.75-3.34,1.93-3.1-1.33,1.63-5.16,2.97-6.01,1.15-.73,2.26-1.09,3.51-1.48.48-.15,1.03-.24,1.43-.57.19-.01.38.02.57,0,1.97-.17,2.79-.32,4.85,0Z"/>
      <path class="cls-18" d="M162.65,60.3c-.16-.86.44-.55.99-.57.95-.03,1.93-.04,2.88,0,.55.02,1.14-.29.99.57-2.06-.32-2.88-.17-4.85,0Z"/>
      <path class="cls-18" d="M162.08,60.3c-.4.33-.95.42-1.43.57-.77-.93.56-.51,1.43-.57Z"/>
      <path class="cls-18" d="M149.25,40.05s-.5-.27-.14-.29h1.57c-.01.16-.29.27-.29.29h-1.14Z"/>
    </g>
    <g>
      <path class="cls-1" d="M178.06,136.46c16.33,1.3,29.94,13.3,34.26,28.93,8.43,2.81,8.73,18.55,1.67,22.54-.75.42-2.14.65-2.57,1.14-.4.46-1.65,4.11-2.22,5.2-14.92,28.72-55.65,27.68-69.13-2-.45-1-1.26-4.07-1.64-4.57-.11-.15-2.71-.98-3.43-1.49-6.02-4.2-5.71-17.19.29-21.36.86-.6,2.77-1.05,3.25-1.59.56-.63,2.01-5.17,2.67-6.46,6.12-12,19.48-20.58,33.1-20.38.2-.12.64-4.4.58-4.62-.08-.29-1.84-1.29-2.37-1.92-2.99-3.52-1.54-9.93,3.18-10.75,7.59-1.32,10.91,7.67,5.35,11.62-1.39.99-2.38.44-2.68,2.45-.16,1.05.14,2.18-.31,3.25ZM180.67,125.45c0-1.85-1.5-3.34-3.34-3.34s-3.34,1.5-3.34,3.34,1.5,3.34,3.34,3.34,3.34-1.5,3.34-3.34ZM169.5,140.74c-15.43,1.24-26.54,16.09-28.52,30.52-.01.08-.26.32-.3.69-.31,2.74-.33,5.74.3,8.44.68,11.37,8.63,22.01,18.54,27.1,3.62,1.86,6.97,3.17,11.12,3.42.3.47,1.08.29,1.56.29,2.41.03,4.65-.02,6.99-.29,9-1.03,16.59-5.44,22.39-12.26.77-.9,5.96-8.52,5.27-9.13-.12-.11-2.23-.24-3.16-.7s-2.54-1.88-3.12-2.73c-3.24-4.73-2.75-14.11.86-18.54,1.1-1.36,2.7-2.48,4.45-2.83,1.21-.24,2.1.6,1.76-.96-2.06-9.4-15.17-21.39-24.75-22.46-.31-.25-1.07-.53-1.43-.57s-.77.02-1.14,0c-3.35-.79-7.54-.98-10.84,0ZM137.55,167.56c-.28-.29-1.09.63-1.29.85-3.22,3.54-3.31,12.16.86,15.12-.33-5.33-.84-10.7.42-15.97ZM208.01,186.38c.1-.07-1.12-1.62-1.29-1.98-2.14-4.42-1.89-10.79.78-14.93.5-.77,1.9-1.54.09-1.64-6.89-.4-8.29,17.16-1.07,18.5.31.06,1.37.16,1.5.07ZM211.64,170.18c-3.67.8-4.09,12.48-.89,14.17,2.56,1.35,4.01-2.04,4.49-3.99.64-2.62.65-11.1-3.6-10.17Z"/>
      <path class="cls-3" d="M169.5,140.74c.09,0,.19,0,.29,0-.16.86.44.55.98.57,12.73.44,23.39,7.96,28.25,19.69.89,2.15,1.27,4.54,2.43,6.56-3.61,4.43-4.1,13.81-.86,18.54-4.84,14.97-17.99,24.68-34.05,23.07-2.4-.24-4.64-1.39-7.02-1.68-9.91-5.08-17.86-15.73-18.54-27.1-.18-3.01.13-6.11,0-9.13,1.98-14.43,13.09-29.28,28.52-30.52ZM159.68,171.81c0-2.39-1.94-4.33-4.33-4.33s-4.33,1.94-4.33,4.33,1.94,4.33,4.33,4.33,4.33-1.94,4.33-4.33ZM178.34,169.84c-.11.06-.18.21-.29.29s-.19.2-.29.29-.19.19-.29.29c-.05.05.05.23,0,.29-.26.28-.35-.63-.57.86-.01.09.01.19,0,.29-.84-.16-.58.44-.57.99,0,.85-.02,2.14.55,2.82.26.31.55.15.59.18,1.28,1.09,2.24,1.92,4.06,1.65,6.72-.98,3.35-11.66-3.21-7.93ZM169.21,184.67c-3-.08-6-.51-8.97-.58-1.56-.04-5.25-.58-5.53,1.36-.32,2.26,2.39,2.24,3.95,2.07-.51.77-.28.54.42.57,2.13.09,4.29-.05,6.42,0,.76.02,1.52-.03,2.28,0-.16.86.44.55.99.57,2.04.07,4.1-.05,6.15,0,.57.09,1.16.2,1.71.29.12.02.43.25.97.31,1.03.11,2.25-.11,3.32-.03-.01-.15-.29-.26-.29-.28.04-.33.91-.47,1.09-1.05,1.02-3.27-3.82-2.54-5.66-2.65.16-.86-.44-.55-.99-.57-1.95-.08-3.91.05-5.86,0Z"/>
      <path class="cls-2" d="M200.59,186.1c.58.85,2.19,2.27,3.12,2.73s3.03.59,3.16.7c.69.61-4.51,8.23-5.27,9.13-5.81,6.82-13.39,11.23-22.39,12.26-2.83-.13-5.74.17-8.56,0-4.15-.25-7.5-1.56-11.12-3.42,2.39.28,4.63,1.44,7.02,1.68,16.06,1.62,29.21-8.1,34.05-23.07Z"/>
      <path class="cls-2" d="M180.34,140.74c.38.02.77-.04,1.14,0-.78.95.57.48,1.43.57,9.58,1.06,22.69,13.06,24.75,22.46.34,1.56-.55.71-1.76.96-1.75.35-3.34,1.47-4.45,2.83-1.16-2.01-1.54-4.41-2.43-6.56-4.86-11.73-15.52-19.24-28.25-19.69-.55-.02-1.14.29-.98-.57,3.2-.2,7.32-.14,10.55,0Z"/>
      <path class="cls-26" d="M211.64,170.18c4.26-.93,4.24,7.55,3.6,10.17-.48,1.96-1.93,5.34-4.49,3.99-3.21-1.69-2.79-13.37.89-14.17Z"/>
      <path class="cls-26" d="M208.01,186.38c-.13.1-1.19,0-1.5-.07-7.22-1.33-5.82-18.89,1.07-18.5,1.8.1.4.87-.09,1.64-2.66,4.14-2.92,10.51-.78,14.93.18.36,1.39,1.91,1.29,1.98Z"/>
      <circle class="cls-26" cx="177.33" cy="125.45" r="3.34"/>
      <path class="cls-26" d="M137.55,167.56c-1.27,5.27-.75,10.64-.42,15.97-4.17-2.95-4.08-11.58-.86-15.12.2-.22,1-1.14,1.29-.85Z"/>
      <path class="cls-20" d="M180.34,140.74c-3.23-.14-7.35-.2-10.55,0-.09,0-.19,0-.29,0,3.3-.98,7.49-.79,10.84,0Z"/>
      <path class="cls-18" d="M140.98,180.39c-.62-2.69-.6-5.69-.3-8.44.04-.37.29-.62.3-.69.13,3.02-.18,6.12,0,9.13Z"/>
      <path class="cls-20" d="M179.2,210.91c-2.34.27-4.58.32-6.99.29-.48,0-1.27.18-1.56-.29,2.82.17,5.73-.13,8.56,0Z"/>
      <path class="cls-20" d="M182.91,141.31c-.86-.1-2.2.38-1.43-.57.36.04,1.12.32,1.43.57Z"/>
      <path class="cls-15" d="M169.21,184.67l6.85.57c1.84.12,6.68-.62,5.66,2.65-.18.59-1.05.72-1.09,1.05h-2.28c-.19-.45-1.24-.45-1.43,0h-.29c-.55-.08-1.14-.2-1.71-.29-2.26-.35-4.78-.49-7.13-.57-.76-.03-1.52.02-2.28,0l-6.85-.57c-1.56.16-4.27.19-3.95-2.07.28-1.94,3.97-1.4,5.53-1.36,2.97.08,5.98.5,8.97.58Z"/>
      <circle class="cls-7" cx="155.36" cy="171.81" r="4.33"/>
      <path class="cls-7" d="M177.49,176.11c-.7-1.6-.79-2.32-.57-3.99.01-.09-.01-.19,0-.29l.57-.86c.05-.05-.05-.23,0-.29l.29-.29c.1-.09.19-.22.29-.29l.29-.29c6.55-3.74,9.92,6.95,3.21,7.93-1.82.27-2.78-.56-4.06-1.65Z"/>
      <path class="cls-18" d="M174.92,188.66c-2.04-.05-4.1.07-6.15,0-.55-.02-1.14.29-.99-.57,2.35.08,4.87.22,7.13.57Z"/>
      <path class="cls-18" d="M165.51,188.09c-2.13-.05-4.29.09-6.42,0-.7-.03-.93.2-.42-.57l6.85.57Z"/>
      <path class="cls-18" d="M169.21,184.67c1.95.05,3.91-.08,5.86,0,.55.02,1.14-.29.99.57l-6.85-.57Z"/>
      <path class="cls-18" d="M176.92,172.12c-.22,1.67-.13,2.39.57,3.99-.04-.04-.33.12-.59-.18-.58-.68-.55-1.98-.55-2.82,0-.54-.27-1.15.57-.99Z"/>
      <path class="cls-18" d="M178.34,188.95h2.28s.27.13.29.28c-1.06-.09-2.28.13-3.32.03-.53-.05-.85-.29-.97-.31h1.71Z"/>
      <path class="cls-18" d="M177.49,170.98l-.57.86c.22-1.49.31-.58.57-.86Z"/>
      <path class="cls-18" d="M178.06,170.12c.1-.07.18-.22.29-.29l-.29.29Z"/>
      <path class="cls-18" d="M177.49,170.69c.09-.1.18-.19.29-.29l-.29.29Z"/>
      <path class="cls-3" d="M178.34,188.95h-1.43c.19-.45,1.24-.45,1.43,0Z"/>
      <line class="cls-15" x1="178.34" y1="188.95" x2="178.23" y2="189.28"/>
    </g>
  </g>
</svg>